<svg id="Layer_1" data-name="Layer 1" xmlns="http://www.w3.org/2000/svg" viewBox="0 0 606.68 256.35"><title>Me Design  Logo 1</title><path d="M116.14,186.83a7,7,0,0,0-8.94,0,5.51,5.51,0,0,0-1.75,4.27v31.18a29.78,29.78,0,0,0-10.34-7.73,32.27,32.27,0,0,0-29,1.39A29.77,29.77,0,0,0,55,227.42a33.07,33.07,0,0,0-4.07,16.34,31.11,31.11,0,0,0,16.46,27.89,34.88,34.88,0,0,0,17.06,4.22,34.16,34.16,0,0,0,17-4.22,31.78,31.78,0,0,0,12-11.54,31.19,31.19,0,0,0,4.43-16.35V191.1a5.62,5.62,0,0,0-1.7-4.27m-13,68a20.37,20.37,0,0,1-7.72,7.8,22.75,22.75,0,0,1-22,0,20.73,20.73,0,0,1-7.78-7.8,21.74,21.74,0,0,1-2.86-11.09,21.49,21.49,0,0,1,2.86-11A20.76,20.76,0,0,1,73.44,225a22.75,22.75,0,0,1,22,0,20.39,20.39,0,0,1,7.72,7.73,22,22,0,0,1,2.79,11,22.2,22.2,0,0,1-2.79,11.09" transform="translate(-50.43 -45.28)" fill="#191919"/><path d="M187.81,246.48a4.72,4.72,0,0,0,1.57-3.64,34.71,34.71,0,0,0-3.64-16.17,26.48,26.48,0,0,0-10.44-11,31.89,31.89,0,0,0-16.16-3.92,34.71,34.71,0,0,0-16.95,4.1,29.63,29.63,0,0,0-11.67,11.43,32.84,32.84,0,0,0-4.19,16.58,31.16,31.16,0,0,0,4.44,16.51,30.67,30.67,0,0,0,12.33,11.37,38.77,38.77,0,0,0,29.57,2.13A34,34,0,0,0,183,268.82a4.12,4.12,0,0,0,1.94-3.45,5,5,0,0,0-2.19-3.94,5.39,5.39,0,0,0-3.64-1.15,6.63,6.63,0,0,0-4,1.26,22.49,22.49,0,0,1-6.5,3.13,24.6,24.6,0,0,1-7.58,1.26q-9.24,0-15.62-4.95a20.16,20.16,0,0,1-7.72-13.06H183.8a5.74,5.74,0,0,0,4-1.44m-50.05-7.8a20.38,20.38,0,0,1,7-12.35q5.52-4.64,14.4-4.63,8,0,13,4.63a20.08,20.08,0,0,1,6.07,12.35Z" transform="translate(-50.43 -45.28)" fill="#191919"/><path d="M245.51,256.93a16.51,16.51,0,0,1-3,9.64,20.12,20.12,0,0,1-8.94,6.82,36.48,36.48,0,0,1-14.15,2.48,49.12,49.12,0,0,1-15.55-2.42,30.16,30.16,0,0,1-11.41-6.36,4.71,4.71,0,0,1-1.59-3.58,5.3,5.3,0,0,1,2.44-4.5,7.54,7.54,0,0,1,4.24-1.62,6.66,6.66,0,0,1,4.62,2.09,19,19,0,0,0,6.92,4.2,26.86,26.86,0,0,0,9.84,1.8q6.93,0,10.75-2.2c2.56-1.45,3.84-3.42,3.84-5.89s-1.26-4.37-3.77-5.94-6.77-2.9-12.76-4q-23.31-4.28-23.33-18.24a13.79,13.79,0,0,1,3.53-9.59,21.47,21.47,0,0,1,9.23-5.89,37.11,37.11,0,0,1,12.15-2,38.84,38.84,0,0,1,14.15,2.43,24.13,24.13,0,0,1,9.9,6.69,5.75,5.75,0,0,1,1.59,3.7,4.58,4.58,0,0,1-2.07,3.58,5.81,5.81,0,0,1-3.4.92A8.51,8.51,0,0,1,233,226.9a18.39,18.39,0,0,0-6.43-3.76,27.56,27.56,0,0,0-8.26-1.09,20.59,20.59,0,0,0-9.18,1.79c-2.38,1.2-3.58,2.87-3.58,5a6.07,6.07,0,0,0,1.22,3.87,10.64,10.64,0,0,0,4.61,2.89,61.08,61.08,0,0,0,9.84,2.6q13.23,2.55,18.78,7a14.37,14.37,0,0,1,5.52,11.67" transform="translate(-50.43 -45.28)" fill="#191919"/><path d="M266.65,194.33a7.21,7.21,0,0,1-2.37,5.38,8.21,8.21,0,0,1-11.29,0A7.26,7.26,0,0,1,253,189a8.21,8.21,0,0,1,11.29,0,7.22,7.22,0,0,1,2.37,5.37" transform="translate(-50.43 -45.28)" fill="#191919"/><path d="M264.82,218.13v51.38a5.69,5.69,0,0,1-1.7,4.22,6.1,6.1,0,0,1-4.49,1.67,6.17,6.17,0,0,1-4.44-1.67,5.56,5.56,0,0,1-1.76-4.22V218.13a5.49,5.49,0,0,1,1.76-4.27,6.31,6.31,0,0,1,4.44-1.62,6.23,6.23,0,0,1,4.49,1.62,5.62,5.62,0,0,1,1.7,4.27" transform="translate(-50.43 -45.28)" fill="#191919"/><path d="M337.16,227.25a30.19,30.19,0,0,0-11.89-11.37,35.71,35.71,0,0,0-17.19-4.11,36.24,36.24,0,0,0-17.38,4.11,29.57,29.57,0,0,0-11.9,11.37,32.32,32.32,0,0,0-4.25,16.64,34,34,0,0,0,3.94,16.51,28.71,28.71,0,0,0,11.05,11.37,31.71,31.71,0,0,0,16.1,4.1,27,27,0,0,0,23.93-13.51V268a25.21,25.21,0,0,1-2.92,12.53,19.83,19.83,0,0,1-7.77,8,21.66,21.66,0,0,1-10.8,2.72,28.6,28.6,0,0,1-11.3-2.13,21.24,21.24,0,0,1-8.27-6.19,6.09,6.09,0,0,0-5-2.42,6.39,6.39,0,0,0-3.39,1.05,5,5,0,0,0-2.55,4.14,5.14,5.14,0,0,0,1.33,3.25,34.06,34.06,0,0,0,12.64,9.4,40.24,40.24,0,0,0,16.27,3.3,35,35,0,0,0,17.45-4.34,30.71,30.71,0,0,0,12-11.83,33.23,33.23,0,0,0,4.25-16.64V243.89a32.07,32.07,0,0,0-4.32-16.64M326.84,255a19.52,19.52,0,0,1-7.65,7.67,23.61,23.61,0,0,1-22.23,0,20,20,0,0,1-7.72-7.67,22.15,22.15,0,0,1-2.8-11.14,22.54,22.54,0,0,1,2.8-11.22,19.92,19.92,0,0,1,7.72-7.73,23.69,23.69,0,0,1,22.23,0,19.48,19.48,0,0,1,7.65,7.73,22.92,22.92,0,0,1,2.73,11.22A22.53,22.53,0,0,1,326.84,255" transform="translate(-50.43 -45.28)" fill="#191919"/><path d="M412.3,241.23v28.4a5.63,5.63,0,0,1-1.76,4.22,6.72,6.72,0,0,1-8.87,0,5.56,5.56,0,0,1-1.76-4.22v-28.4q0-9.37-5.28-14.15t-14-4.8a21.5,21.5,0,0,0-9.3,2,16.11,16.11,0,0,0-6.56,5.31,12.63,12.63,0,0,0-2.36,7.5v32.57a5.63,5.63,0,0,1-1.72,4.22,6.08,6.08,0,0,1-4.49,1.67,6.16,6.16,0,0,1-4.43-1.67,5.6,5.6,0,0,1-1.77-4.22v-51.5a5.53,5.53,0,0,1,1.77-4.27,6.3,6.3,0,0,1,4.43-1.62,6.22,6.22,0,0,1,4.49,1.62,5.56,5.56,0,0,1,1.72,4.27v1.26a27,27,0,0,1,9.23-5.7,31.64,31.64,0,0,1,11.41-2,32.08,32.08,0,0,1,15.06,3.47,25,25,0,0,1,10.45,10.1,31.93,31.93,0,0,1,3.77,16" transform="translate(-50.43 -45.28)" fill="#191919"/><path d="M434.77,269.29a7.58,7.58,0,0,1-2.44,5.61,8.18,8.18,0,0,1-5.94,2.36,8.27,8.27,0,0,1-5.89-2.36,7.52,7.52,0,0,1-2.49-5.61,7.6,7.6,0,0,1,2.49-5.72,8.5,8.5,0,0,1,11.78,0,7.64,7.64,0,0,1,2.49,5.72" transform="translate(-50.43 -45.28)" fill="#191919"/><path d="M657.11,150.4a18.7,18.7,0,0,1-18.34,18.71H619.71l-56.93,0h-.4a18.73,18.73,0,0,1,.2-37.45h53.58a76.91,76.91,0,0,0-148.9,16.48v0a2.2,2.2,0,0,0,0,.36v0a4.13,4.13,0,0,1,.13.61,17.86,17.86,0,0,1,.34,3.54c0,.38,0,.76,0,1.14a17.7,17.7,0,0,1-.94,4.8v0a18.71,18.71,0,0,1-36.06-2.13,19.08,19.08,0,0,1-.31-2,17.93,17.93,0,0,1-.09-1.8c0-.48,0-1,.06-1.43a76.53,76.53,0,0,0-152.35.42s0,0,0,0c-.14,1.43-.24,2.89-.28,4.35,0,.16-.06.3-.09.44v0a18.72,18.72,0,0,1-36.51.55s0,0,0,0a15.68,15.68,0,0,1-.44-2.57v-.05a17,17,0,0,1-.09-1.75,19.57,19.57,0,0,1,.12-2,76.84,76.84,0,0,0-152.84,1c0-.39,0-.77-.09-1.15v2.25c-.09,1.09-.16,2.17-.19,3.27a18.72,18.72,0,0,1-37-1.58v-.07c.07-2,.2-3.9.39-5.84a17.38,17.38,0,0,0-.47,4.11V67.45c0-10,7.59-18.63,17.57-19.24A18.74,18.74,0,0,1,87.74,64.76v10A113.56,113.56,0,0,1,248.52,83a14.19,14.19,0,0,0,21.13,0A113.61,113.61,0,0,1,449,96.34a113.63,113.63,0,0,1,205.17,35.34c.18.71.35,1.41.5,2.14a109.07,109.07,0,0,1,2.2,13.63s0,0,0,.07v0c.07.58.12,1.16.17,1.74a1.27,1.27,0,0,1,0,.27,7.77,7.77,0,0,1,0,.84" transform="translate(-50.43 -45.28)" fill="#191919"/><path d="M637.4,230.07A18.4,18.4,0,0,1,634,240.83h0q-.51.69-1.05,1.35a113.58,113.58,0,0,1-177,1.33q-1.65-2-3.15-4a18.49,18.49,0,0,1-2.55-9.43,18.72,18.72,0,0,1,32.93-12.18c.28.37.57.75.88,1.12s.73.91,1.1,1.35l.16.17a76.81,76.81,0,0,0,116.65.08h0c.32-.39.65-.78,1-1.18.51-.59,1-1.2,1.46-1.83a.52.52,0,0,1,.1-.11,19,19,0,0,1,32.92,12.59" transform="translate(-50.43 -45.28)" fill="#191919"/></svg>